<?xml version="1.0" encoding="utf-8"?>
<svg xmlns="http://www.w3.org/2000/svg" style="margin: auto; display: block; shape-rendering: auto;" width="280" height="150" preserveAspectRatio="xMidYMid">
<style type="text/css">
  text {
    text-anchor: middle; font-size: 55px; opacity: 0;
  }
</style>
<g style="transform-origin: 140px 75px; transform: scale(1.1);">
<g transform="translate(140,75)">
  <g transform="translate(0,0)"><g class="path" style="opacity: 1; transform-origin: -95.175px 6.09555px; animation: 1s linear -0.6s infinite normal forwards running fade-e3937dee-eef5-4e55-9469-c3870e77bb2c;"><path d="M3.65 11.40L3.65-19.35L3.65-19.35Q3.65-21.15 3.40-24.70L3.40-24.70L7.10-25.20L7.55-22.50L7.55-22.50Q8.55-23.35 9.63-24.03L9.63-24.03L9.63-24.03Q10.70-24.70 11.98-25.18L11.98-25.18L11.98-25.18Q13.25-25.65 14.70-25.65L14.70-25.65L14.70-25.65Q16.75-25.65 18.57-24.95L18.57-24.95L18.57-24.95Q20.40-24.25 21.78-22.70L21.78-22.70L21.78-22.70Q23.15-21.15 23.95-18.68L23.95-18.68L23.95-18.68Q24.75-16.20 24.75-12.60L24.75-12.60L24.75-12.60Q24.75-8.95 23.68-6.43L23.68-6.43L23.68-6.43Q22.60-3.90 20.88-2.33L20.88-2.33L20.88-2.33Q19.15-0.75 16.98-0.05L16.98-0.05L16.98-0.05Q14.80 0.65 12.55 0.65L12.55 0.65L12.55 0.65Q10.15 0.60 7.65 0.05L7.65 0.05L7.65 10.90L3.65 11.40zM12.55-2.85L12.55-2.85L12.55-2.85Q14.65-2.85 16.15-3.60L16.15-3.60L16.15-3.60Q17.65-4.35 18.63-5.68L18.63-5.68L18.63-5.68Q19.60-7 20.05-8.72L20.05-8.72L20.05-8.72Q20.50-10.45 20.50-12.40L20.50-12.40L20.50-12.40Q20.50-14.15 20.18-15.90L20.18-15.90L20.18-15.90Q19.85-17.65 19.13-19.03L19.13-19.03L19.13-19.03Q18.40-20.40 17.20-21.28L17.20-21.28L17.20-21.28Q16-22.15 14.25-22.15L14.25-22.15L14.25-22.15Q12.95-22.15 11.80-21.68L11.80-21.68L11.80-21.68Q10.65-21.20 9.63-20.53L9.63-20.53L9.63-20.53Q8.60-19.85 7.65-19L7.65-19L7.65-3.65L7.65-3.65Q8.20-3.45 8.88-3.28L8.88-3.28L8.88-3.28Q9.55-3.10 10.48-2.98L10.48-2.98L10.48-2.98Q11.40-2.85 12.55-2.85" fill="#93dbe9" stroke="none" stroke-width="none" transform="translate(-109.25,13.220546930486504)" style="fill: rgb(147, 219, 233);"></path></g><g class="path" style="opacity: 1; transform-origin: -72.525px 0.391975px; animation: 1s linear -0.54s infinite normal forwards running fade-e3937dee-eef5-4e55-9469-c3870e77bb2c;"><path d="M30.65 0L30.65-21.10L30.65-21.10Q30.65-22.25 30.40-24.70L30.40-24.70L34.10-25.20L34.50-21.55L34.55-21.55L34.55-21.55Q35.45-22.70 36.30-23.55L36.30-23.55L36.30-23.55Q37.15-24.40 38.08-25.03L38.08-25.03L38.08-25.03Q39-25.65 39.85-25.65L39.85-25.65L39.85-25.65Q41-25.70 43.05-25.40L43.05-25.40L42.15-21.55L42.15-21.55Q40.50-21.85 39.85-21.80L39.85-21.80L39.85-21.80Q39-21.80 38.05-21L38.05-21L38.05-21Q37.10-20.20 36.40-19.30L36.40-19.30L36.40-19.30Q35.50-18.20 34.65-16.80L34.65-16.80L34.65 0L30.65 0" fill="#93dbe9" stroke="none" stroke-width="none" transform="translate(-109.25,13.220546930486504)" style="fill: rgb(104, 156, 197);"></path></g><g class="path" style="opacity: 1; transform-origin: -51.8px 0.720547px; animation: 1s linear -0.48s infinite normal forwards running fade-e3937dee-eef5-4e55-9469-c3870e77bb2c;"><path d="M49.55-12.45L49.55-12.45L49.55-12.45Q49.55-7.60 51.73-5.23L51.73-5.23L51.73-5.23Q53.90-2.85 57.60-2.85L57.60-2.85L57.60-2.85Q61.25-2.85 63.30-5.20L63.30-5.20L63.30-5.20Q65.35-7.55 65.35-12.25L65.35-12.25L65.35-12.25Q65.35-17.25 63.18-19.70L63.18-19.70L63.18-19.70Q61-22.15 57.25-22.15L57.25-22.15L57.25-22.15Q53.50-22.15 51.53-19.73L51.53-19.73L51.53-19.73Q49.55-17.30 49.55-12.45zM45.30-12.50L45.30-12.50L45.30-12.50Q45.30-16.30 46.50-18.82L46.50-18.82L46.50-18.82Q47.70-21.35 49.55-22.88L49.55-22.88L49.55-22.88Q51.40-24.40 53.53-25.03L53.53-25.03L53.53-25.03Q55.65-25.65 57.55-25.65L57.55-25.65L57.55-25.65Q59.35-25.65 61.48-25.08L61.48-25.08L61.48-25.08Q63.60-24.50 65.40-23.03L65.40-23.03L65.40-23.03Q67.20-21.55 68.40-19.07L68.40-19.07L68.40-19.07Q69.60-16.60 69.60-12.80L69.60-12.80L69.60-12.80Q69.60-8.85 68.38-6.25L68.38-6.25L68.38-6.25Q67.15-3.65 65.30-2.13L65.30-2.13L65.30-2.13Q63.45-0.60 61.30 0.03L61.30 0.03L61.30 0.03Q59.15 0.65 57.30 0.65L57.30 0.65L57.30 0.65Q55.40 0.65 53.30 0.05L53.30 0.05L53.30 0.05Q51.20-0.55 49.43-2.02L49.43-2.02L49.43-2.02Q47.65-3.50 46.48-6.05L46.48-6.05L46.48-6.05Q45.30-8.60 45.30-12.50" fill="#93dbe9" stroke="none" stroke-width="none" transform="translate(-109.25,13.220546930486504)" style="fill: rgb(94, 111, 163);"></path></g><g class="path" style="opacity: 1; transform-origin: -26.075px 0.720547px; animation: 1s linear -0.42s infinite normal forwards running fade-e3937dee-eef5-4e55-9469-c3870e77bb2c;"><path d="M91.80-24.85L91.00-21.50L91.00-21.50Q90.15-21.70 88.65-21.93L88.65-21.93L88.65-21.93Q87.15-22.15 85.60-22.15L85.60-22.15L85.60-22.15Q83.35-22.15 81.93-21.25L81.93-21.25L81.93-21.25Q80.50-20.35 79.70-18.93L79.70-18.93L79.70-18.93Q78.90-17.50 78.60-15.78L78.60-15.78L78.60-15.78Q78.30-14.05 78.30-12.40L78.30-12.40L78.30-12.40Q78.30-9.85 78.95-8.03L78.95-8.03L78.95-8.03Q79.60-6.20 80.68-5.05L80.68-5.05L80.68-5.05Q81.75-3.90 83.15-3.38L83.15-3.38L83.15-3.38Q84.55-2.85 86.10-2.85L86.10-2.85L86.10-2.85Q87.15-2.85 88.13-2.98L88.13-2.98L88.13-2.98Q89.10-3.10 89.93-3.28L89.93-3.28L89.93-3.28Q90.75-3.45 91.50-3.70L91.50-3.70L92.30-0.35L92.30-0.35Q91.25-0.05 90.35 0.15L90.35 0.15L90.35 0.15Q89.45 0.35 88.23 0.50L88.23 0.50L88.23 0.50Q87.00 0.65 85.60 0.65L85.60 0.65L85.60 0.65Q82.85 0.65 80.70-0.05L80.70-0.05L80.70-0.05Q78.55-0.75 77.08-2.30L77.08-2.30L77.08-2.30Q75.60-3.85 74.83-6.35L74.83-6.35L74.83-6.35Q74.05-8.85 74.05-12.45L74.05-12.45L74.05-12.45Q74.05-15.95 75.03-18.48L75.03-18.48L75.03-18.48Q76.00-21 77.60-22.58L77.60-22.58L77.60-22.58Q79.20-24.15 81.28-24.90L81.28-24.90L81.28-24.90Q83.35-25.65 85.60-25.65L85.60-25.65L85.60-25.65Q86.80-25.65 87.93-25.53L87.93-25.53L87.93-25.53Q89.05-25.40 89.90-25.25L89.90-25.25L89.90-25.25Q90.90-25.05 91.80-24.85L91.80-24.85" fill="#93dbe9" stroke="none" stroke-width="none" transform="translate(-109.25,13.220546930486504)" style="fill: rgb(59, 67, 104);"></path></g><g class="path" style="opacity: 1; transform-origin: -3.375px 0.720547px; animation: 1s linear -0.36s infinite normal forwards running fade-e3937dee-eef5-4e55-9469-c3870e77bb2c;"><path d="M114.50-3.95L115.25-0.60L115.25-0.60Q114.10-0.25 112.88 0L112.88 0L112.88 0Q111.65 0.25 110.18 0.45L110.18 0.45L110.18 0.45Q108.70 0.65 107.10 0.65L107.10 0.65L107.10 0.65Q104.60 0.65 102.45-0.05L102.45-0.05L102.45-0.05Q100.30-0.75 98.70-2.30L98.70-2.30L98.70-2.30Q97.10-3.85 96.18-6.33L96.18-6.33L96.18-6.33Q95.25-8.80 95.25-12.40L95.25-12.40L95.25-12.40Q95.25-15.65 96.15-18.13L96.15-18.13L96.15-18.13Q97.05-20.60 98.63-22.28L98.63-22.28L98.63-22.28Q100.20-23.95 102.33-24.80L102.33-24.80L102.33-24.80Q104.45-25.65 106.95-25.65L106.95-25.65L106.95-25.65Q109.40-25.65 111.20-24.70L111.20-24.70L111.20-24.70Q113.00-23.75 114.18-22.13L114.18-22.13L114.18-22.13Q115.35-20.50 115.93-18.32L115.93-18.32L115.93-18.32Q116.50-16.15 116.50-13.75L116.50-13.75L115.75-11.55L99.60-11.55L99.60-11.55Q99.60-10 100.00-8.45L100.00-8.45L100.00-8.45Q100.40-6.90 101.38-5.65L101.38-5.65L101.38-5.65Q102.35-4.40 103.93-3.63L103.93-3.63L103.93-3.63Q105.50-2.85 107.85-2.85L107.85-2.85L107.85-2.85Q109.35-2.85 110.60-3.03L110.60-3.03L110.60-3.03Q111.85-3.20 112.78-3.43L112.78-3.43L112.78-3.43Q113.70-3.65 114.50-3.95L114.50-3.95zM99.75-14.75L112.35-14.75L112.35-14.75Q112.35-15.10 112.20-16.30L112.20-16.30L112.20-16.30Q112.05-17.50 111.50-18.80L111.50-18.80L111.50-18.80Q110.95-20.10 109.80-21.13L109.80-21.13L109.80-21.13Q108.65-22.15 106.75-22.15L106.75-22.15L106.75-22.15Q104.65-22.15 103.30-21.28L103.30-21.28L103.30-21.28Q101.95-20.40 101.15-19.20L101.15-19.20L101.15-19.20Q100.35-18 100.05-16.75L100.05-16.75L100.05-16.75Q99.75-15.50 99.75-14.75L99.75-14.75" fill="#93dbe9" stroke="none" stroke-width="none" transform="translate(-109.25,13.220546930486504)" style="fill: rgb(25, 29, 58);"></path></g><g class="path" style="opacity: 1; transform-origin: 19.65px 0.720547px; animation: 1s linear -0.3s infinite normal forwards running fade-e3937dee-eef5-4e55-9469-c3870e77bb2c;"><path d="M136.25-24.60L135.55-21.05L135.55-21.05Q133.45-21.70 131.83-21.93L131.83-21.93L131.83-21.93Q130.20-22.15 128.85-22.15L128.85-22.15L128.85-22.15Q127.10-22.15 125.93-21.30L125.93-21.30L125.93-21.30Q124.75-20.45 124.75-19.10L124.75-19.10L124.75-19.10Q124.80-17.90 125.80-17.05L125.80-17.05L125.80-17.05Q126.80-16.20 128.13-15.53L128.13-15.53L128.13-15.53Q129.45-14.85 131.08-14.05L131.08-14.05L131.08-14.05Q132.70-13.25 134.13-12.25L134.13-12.25L134.13-12.25Q135.55-11.25 136.45-9.85L136.45-9.85L136.45-9.85Q137.35-8.45 137.40-6.50L137.40-6.50L137.40-6.50Q137.35-4.40 136.48-3.03L136.48-3.03L136.48-3.03Q135.60-1.65 134.23-0.83L134.23-0.83L134.23-0.83Q132.85 0 131.25 0.33L131.25 0.33L131.25 0.33Q129.65 0.65 128.25 0.65L128.25 0.65L128.25 0.65Q126.45 0.65 124.53 0.45L124.53 0.45L124.53 0.45Q122.60 0.25 120.40-0.40L120.40-0.40L121.15-4L121.15-4Q123.40-3.40 125.25-3.13L125.25-3.13L125.25-3.13Q127.10-2.85 128.30-2.85L128.30-2.85L128.30-2.85Q129.20-2.85 130.08-3.05L130.08-3.05L130.08-3.05Q130.95-3.25 131.65-3.63L131.65-3.63L131.65-3.63Q132.35-4 132.78-4.60L132.78-4.60L132.78-4.60Q133.20-5.20 133.20-5.95L133.20-5.95L133.20-5.95Q133.15-7.35 132.25-8.33L132.25-8.33L132.25-8.33Q131.35-9.30 129.93-10.08L129.93-10.08L129.93-10.08Q128.50-10.85 126.88-11.63L126.88-11.63L126.88-11.63Q125.25-12.40 123.83-13.43L123.83-13.43L123.83-13.43Q122.40-14.45 121.45-15.88L121.45-15.88L121.45-15.88Q120.50-17.30 120.50-19.40L120.50-19.40L120.50-19.40Q120.50-20.90 121.28-22.08L121.28-22.08L121.28-22.08Q122.05-23.25 123.28-24.03L123.28-24.03L123.28-24.03Q124.50-24.80 125.98-25.23L125.98-25.23L125.98-25.23Q127.45-25.65 128.85-25.65L128.85-25.65L128.85-25.65Q130.30-25.65 132.10-25.43L132.10-25.43L132.10-25.43Q133.90-25.20 136.25-24.60L136.25-24.60" fill="#93dbe9" stroke="none" stroke-width="none" transform="translate(-109.25,13.220546930486504)" style="fill: rgb(217, 219, 238);"></path></g><g class="path" style="opacity: 1; transform-origin: 40.5px 0.720547px; animation: 1s linear -0.24s infinite normal forwards running fade-e3937dee-eef5-4e55-9469-c3870e77bb2c;"><path d="M157.10-24.60L156.40-21.05L156.40-21.05Q154.30-21.70 152.68-21.93L152.68-21.93L152.68-21.93Q151.05-22.15 149.70-22.15L149.70-22.15L149.70-22.15Q147.95-22.15 146.78-21.30L146.78-21.30L146.78-21.30Q145.60-20.45 145.60-19.10L145.60-19.10L145.60-19.10Q145.65-17.90 146.65-17.05L146.65-17.05L146.65-17.05Q147.65-16.20 148.98-15.53L148.98-15.53L148.98-15.53Q150.30-14.85 151.93-14.05L151.93-14.05L151.93-14.05Q153.55-13.25 154.98-12.25L154.98-12.25L154.98-12.25Q156.40-11.25 157.30-9.85L157.30-9.85L157.30-9.85Q158.20-8.45 158.25-6.50L158.25-6.50L158.25-6.50Q158.20-4.40 157.33-3.03L157.33-3.03L157.33-3.03Q156.45-1.65 155.08-0.83L155.08-0.83L155.08-0.83Q153.70 0 152.10 0.33L152.10 0.33L152.10 0.33Q150.50 0.65 149.10 0.65L149.10 0.65L149.10 0.65Q147.30 0.65 145.38 0.45L145.38 0.45L145.38 0.45Q143.45 0.25 141.25-0.40L141.25-0.40L142.00-4L142.00-4Q144.25-3.40 146.10-3.13L146.10-3.13L146.10-3.13Q147.95-2.85 149.15-2.85L149.15-2.85L149.15-2.85Q150.05-2.85 150.93-3.05L150.93-3.05L150.93-3.05Q151.80-3.25 152.50-3.63L152.50-3.63L152.50-3.63Q153.20-4 153.63-4.60L153.63-4.60L153.63-4.60Q154.05-5.20 154.05-5.95L154.05-5.95L154.05-5.95Q154.00-7.35 153.10-8.33L153.10-8.33L153.10-8.33Q152.20-9.30 150.78-10.08L150.78-10.08L150.78-10.08Q149.35-10.85 147.73-11.63L147.73-11.63L147.73-11.63Q146.10-12.40 144.68-13.43L144.68-13.43L144.68-13.43Q143.25-14.45 142.30-15.88L142.30-15.88L142.30-15.88Q141.35-17.30 141.35-19.40L141.35-19.40L141.35-19.40Q141.35-20.90 142.13-22.08L142.13-22.08L142.13-22.08Q142.90-23.25 144.13-24.03L144.13-24.03L144.13-24.03Q145.35-24.80 146.83-25.23L146.83-25.23L146.83-25.23Q148.30-25.65 149.70-25.65L149.70-25.65L149.70-25.65Q151.15-25.65 152.95-25.43L152.95-25.43L152.95-25.43Q154.75-25.20 157.10-24.60L157.10-24.60" fill="#93dbe9" stroke="none" stroke-width="none" transform="translate(-109.25,13.220546930486504)" style="fill: rgb(179, 183, 226);"></path></g><g class="path" style="opacity: 1; transform-origin: 56.4px 0.395547px; animation: 1s linear -0.18s infinite normal forwards running fade-e3937dee-eef5-4e55-9469-c3870e77bb2c;"><path d="M163.65 0L163.65-25.20L167.65-25.65L167.65 0L163.65 0" fill="#93dbe9" stroke="none" stroke-width="none" transform="translate(-109.25,13.220546930486504)" style="fill: rgb(147, 219, 233);"></path></g><g class="path" style="opacity: 1; transform-origin: 56.525px -19.1295px; animation: 1s linear -0.12s infinite normal forwards running fade-e3937dee-eef5-4e55-9469-c3870e77bb2c;"><path d="M163-32.35L163-32.35L163-32.35Q163-33.50 163.78-34.27L163.78-34.27L163.78-34.27Q164.55-35.05 165.70-35.05L165.70-35.05L165.70-35.05Q166.90-35.05 167.73-34.27L167.73-34.27L167.73-34.27Q168.55-33.50 168.55-32.35L168.55-32.35L168.55-32.35Q168.55-31.20 167.73-30.43L167.73-30.43L167.73-30.43Q166.90-29.65 165.70-29.65L165.70-29.65L165.70-29.65Q164.55-29.65 163.78-30.43L163.78-30.43L163.78-30.43Q163-31.20 163-32.35" fill="#93dbe9" stroke="none" stroke-width="none" transform="translate(-109.25,13.220546930486504)" style="fill: rgb(104, 156, 197);"></path></g><g class="path" style="opacity: 1; transform-origin: 75.65px 0.395547px; animation: 1s linear -0.06s infinite normal forwards running fade-e3937dee-eef5-4e55-9469-c3870e77bb2c;"><path d="M174.90 0L174.90-20.15L174.90-20.15Q174.95-21.20 174.65-24.70L174.65-24.70L178.35-25.20L178.90-22L178.90-22Q180.40-23 181.88-23.75L181.88-23.75L181.88-23.75Q183.35-24.50 184.90-25.08L184.90-25.08L184.90-25.08Q186.45-25.65 187.90-25.65L187.90-25.65L187.90-25.65Q189.95-25.65 191.32-25.18L191.32-25.18L191.32-25.18Q192.70-24.70 193.55-23.60L193.55-23.60L193.55-23.60Q194.40-22.50 194.78-20.70L194.78-20.70L194.78-20.70Q195.15-18.90 195.15-16.20L195.15-16.20L195.15 0L191.15 0L191.15-15.75L191.15-15.75Q191.15-17.25 191.10-18.43L191.10-18.43L191.10-18.43Q191.05-19.60 190.68-20.43L190.68-20.43L190.68-20.43Q190.30-21.25 189.53-21.70L189.53-21.70L189.53-21.70Q188.75-22.15 187.35-22.15L187.35-22.15L187.35-22.15Q186.05-22.15 184.60-21.58L184.60-21.58L184.60-21.58Q183.15-21 181.75-20.25L181.75-20.25L181.75-20.25Q180.35-19.50 178.90-18.50L178.90-18.50L178.90 0L174.90 0" fill="#93dbe9" stroke="none" stroke-width="none" transform="translate(-109.25,13.220546930486504)" style="fill: rgb(94, 111, 163);"></path></g><g class="path" style="opacity: 1; transform-origin: 102.125px 6.47055px; animation: 1s linear 0s infinite normal forwards running fade-e3937dee-eef5-4e55-9469-c3870e77bb2c;"><path d="M221.90-24.55L221.90 2.40L221.90 2.40Q221.90 4.25 221.50 6L221.50 6L221.50 6Q221.10 7.75 219.97 9.13L219.97 9.13L219.97 9.13Q218.85 10.50 216.82 11.33L216.82 11.33L216.82 11.33Q214.80 12.15 211.50 12.15L211.50 12.15L211.50 12.15Q209.40 12.10 207.85 11.90L207.85 11.90L207.85 11.90Q206.30 11.70 204.90 11.33L204.90 11.33L204.90 11.33Q203.50 10.95 202.35 10.45L202.35 10.45L203.40 6.95L203.40 6.95Q205.35 7.80 207.38 8.25L207.38 8.25L207.38 8.25Q209.40 8.70 211 8.70L211 8.70L211 8.70Q212.75 8.70 214.05 8.35L214.05 8.35L214.05 8.35Q215.35 8 216.22 7.18L216.22 7.18L216.22 7.18Q217.10 6.35 217.53 5L217.53 5L217.53 5Q217.95 3.65 217.95 1.65L217.95 1.65L217.95-2L217.95-2Q216.90-1.30 215.78-0.73L215.78-0.73L215.78-0.73Q214.65-0.15 213.38 0.25L213.38 0.25L213.38 0.25Q212.10 0.65 210.90 0.65L210.90 0.65L210.90 0.65Q206.25 0.65 203.55-2.63L203.55-2.63L203.55-2.63Q200.85-5.90 200.85-12.40L200.85-12.40L200.85-12.40Q200.85-16.15 202.03-18.68L202.03-18.68L202.03-18.68Q203.20-21.20 205-22.75L205-22.75L205-22.75Q206.80-24.30 208.95-24.98L208.95-24.98L208.95-24.98Q211.10-25.65 213.05-25.65L213.05-25.65L213.05-25.65Q215.60-25.65 217.72-25.23L217.72-25.23L217.72-25.23Q219.85-24.80 221.90-24.55L221.90-24.55zM211.35-2.85L211.35-2.85L211.35-2.85Q212.45-2.85 213.60-3.25L213.60-3.25L213.60-3.25Q214.75-3.65 215.82-4.20L215.82-4.20L215.82-4.20Q216.90-4.75 217.95-5.50L217.95-5.50L217.95-21.45L217.95-21.45Q217.35-21.60 216.55-21.80L216.55-21.80L216.55-21.80Q215.85-21.90 214.95-22.03L214.95-22.03L214.95-22.03Q214.05-22.15 213.05-22.15L213.05-22.15L213.05-22.15Q210.95-22.15 209.45-21.40L209.45-21.40L209.45-21.40Q207.95-20.65 206.97-19.35L206.97-19.35L206.97-19.35Q206-18.05 205.55-16.30L205.55-16.30L205.55-16.30Q205.10-14.55 205.10-12.60L205.10-12.60L205.10-12.60Q205.10-10.85 205.47-9.10L205.47-9.10L205.47-9.10Q205.85-7.35 206.65-5.95L206.65-5.95L206.65-5.95Q207.45-4.55 208.60-3.70L208.60-3.70L208.60-3.70Q209.75-2.85 211.35-2.85" fill="#93dbe9" stroke="none" stroke-width="none" transform="translate(-109.25,13.220546930486504)" style="fill: rgb(59, 67, 104);"></path></g></g>
</g>
</g>
<style id="fade-e3937dee-eef5-4e55-9469-c3870e77bb2c" data-anikit="">@keyframes fade-e3937dee-eef5-4e55-9469-c3870e77bb2c
{
  0% {
    animation-timing-function: cubic-bezier(0.2057,0.573,0.3723,0.9184);
    opacity: 1;
  }
  100% {
    opacity: 0;
  }
}</style></svg>